<svg width="24" height="24" viewBox="0 0 24 24" fill="none" xmlns="http://www.w3.org/2000/svg">
<path d="M21.4995 10.5003V13.0062C21.179 12.8722 20.8451 12.7637 20.4995 12.682V11.5003H3.49951V20.5003H12.686C12.7692 20.8446 12.8762 21.1785 13.0093 21.5003H3.99951C3.6018 21.5002 3.22019 21.3421 2.93896 21.0609C2.65774 20.7796 2.49959 20.398 2.49951 20.0003V10.5003H21.4995ZM21.8247 17.2171L17.7651 21.2767L15.6909 19.015L16.1597 18.5472L17.7495 20.137L21.3032 16.5833L21.8247 17.2171ZM6.00732 8.6966L2.39209 9.41145L2.1001 7.9427V7.94172C2.07103 7.79692 2.06336 7.64872 2.07764 7.50227L2.09912 7.35676C2.12779 7.21203 2.17732 7.07236 2.24658 6.9427L2.32275 6.81672C2.43199 6.65324 2.5723 6.51277 2.73584 6.40363C2.89952 6.29445 3.08381 6.21904 3.27686 6.18098L3.27588 6.18L3.95264 6.04914L6.00732 8.6966ZM10.9204 7.71711L10.0542 7.88898L7.98779 5.23566L8.86475 5.05305L10.9204 7.71711ZM15.8188 6.73664L14.9546 6.90949L12.8921 4.26203L13.7632 4.09016L15.8188 6.73664ZM21.0317 5.70832L19.855 5.94758L17.7993 3.2923L20.4458 2.76691L21.0317 5.70832Z" fill="#191919" stroke="#525256"/>
</svg>
